<?xml version="1.0" encoding="utf-8" standalone="no"?>
<!DOCTYPE svg PUBLIC "-//W3C//DTD SVG 1.1//EN"
  "http://www.w3.org/Graphics/SVG/1.1/DTD/svg11.dtd">
<svg xmlns:xlink="http://www.w3.org/1999/xlink" width="432pt" height="172.8pt" viewBox="0 0 432 172.8" xmlns="http://www.w3.org/2000/svg" version="1.1">
 <metadata>
  <rdf:RDF xmlns:dc="http://purl.org/dc/elements/1.1/" xmlns:cc="http://creativecommons.org/ns#" xmlns:rdf="http://www.w3.org/1999/02/22-rdf-syntax-ns#">
   <cc:Work>
    <dc:type rdf:resource="http://purl.org/dc/dcmitype/StillImage"/>
    <dc:date>2024-02-19T12:26:08.943136</dc:date>
    <dc:format>image/svg+xml</dc:format>
    <dc:creator>
     <cc:Agent>
      <dc:title>Matplotlib v3.8.3, https://matplotlib.org/</dc:title>
     </cc:Agent>
    </dc:creator>
   </cc:Work>
  </rdf:RDF>
 </metadata>
 <defs>
  <style type="text/css">*{stroke-linejoin: round; stroke-linecap: butt}</style>
 </defs>
 <g id="figure_1">
  <g id="patch_1">
   <path d="M 0 172.8 
L 432 172.8 
L 432 0 
L 0 0 
z
" style="fill: #ffffff"/>
  </g>
  <g id="axes_1">
   <g id="patch_2">
    <path d="M 48.26 131.518937 
L 211.14 131.518937 
L 211.14 9.72 
L 48.26 9.72 
z
" style="fill: #ffffff"/>
   </g>
   <g id="PolyCollection_1">
    <defs>
     <path id="m55aab12e4d" d="M 144.663141 -45.710115 
L 117.114369 -45.710115 
L 122.909289 -48.435685 
L 130.785861 -51.161256 
L 132.162052 -53.886827 
L 139.237358 -59.337968 
L 148.835707 -64.789109 
L 153.946927 -70.24025 
L 161.148861 -75.691392 
L 164.158355 -81.142533 
L 167.346091 -86.593674 
L 170.45936 -86.593674 
L 170.45936 -86.593674 
L 168.016416 -81.142533 
L 165.183979 -75.691392 
L 161.36381 -70.24025 
L 157.257701 -64.789109 
L 152.368087 -59.337968 
L 141.178701 -53.886827 
L 138.341269 -51.161256 
L 138.341269 -48.435685 
L 144.663141 -45.710115 
z
" style="stroke: #0000ff; stroke-opacity: 0.3"/>
    </defs>
    <g clip-path="url(#pf6e0d1c317)">
     <use xlink:href="#m55aab12e4d" x="0" y="172.8" style="fill: #0000ff; fill-opacity: 0.3; stroke: #0000ff; stroke-opacity: 0.3"/>
    </g>
   </g>
   <g id="PolyCollection_2">
    <defs>
     <path id="mb2fa0db109" d="M 196.332727 -45.710115 
L 111.957787 -45.710115 
L 118.050573 -48.435685 
L 120.370956 -51.161256 
L 127.354952 -53.886827 
L 130.680281 -59.337968 
L 138.765859 -64.789109 
L 148.79997 -70.24025 
L 156.779816 -75.691392 
L 159.559539 -81.142533 
L 162.313605 -86.593674 
L 173.7717 -86.593674 
L 173.7717 -86.593674 
L 171.467305 -81.142533 
L 171.215176 -75.691392 
L 167.386616 -70.24025 
L 167.104866 -64.789109 
L 162.492634 -59.337968 
L 149.515599 -53.886827 
L 143.114927 -51.161256 
L 148.956169 -48.435685 
L 196.332727 -45.710115 
z
" style="stroke: #0000ff; stroke-opacity: 0.1"/>
    </defs>
    <g clip-path="url(#pf6e0d1c317)">
     <use xlink:href="#mb2fa0db109" x="0" y="172.8" style="fill: #0000ff; fill-opacity: 0.1; stroke: #0000ff; stroke-opacity: 0.1"/>
    </g>
   </g>
   <g id="matplotlib.axis_1">
    <g id="xtick_1">
     <g id="line2d_1">
      <defs>
       <path id="mb443598ccd" d="M 0 0 
L 0 3.5 
" style="stroke: #000000; stroke-width: 0.8"/>
      </defs>
      <g>
       <use xlink:href="#mb443598ccd" x="48.26" y="131.518937" style="stroke: #000000; stroke-width: 0.8"/>
      </g>
     </g>
     <g id="text_1">
      <!-- 0 -->
      <g transform="translate(46.01 144.768312) scale(0.09 -0.09)">
       <defs>
        <path id="TimesNewRomanPSMT-30" d="M 231 2094 
Q 231 2819 450 3342 
Q 669 3866 1031 4122 
Q 1313 4325 1613 4325 
Q 2100 4325 2488 3828 
Q 2972 3213 2972 2159 
Q 2972 1422 2759 906 
Q 2547 391 2217 158 
Q 1888 -75 1581 -75 
Q 975 -75 572 641 
Q 231 1244 231 2094 
z
M 844 2016 
Q 844 1141 1059 588 
Q 1238 122 1591 122 
Q 1759 122 1940 273 
Q 2122 425 2216 781 
Q 2359 1319 2359 2297 
Q 2359 3022 2209 3506 
Q 2097 3866 1919 4016 
Q 1791 4119 1609 4119 
Q 1397 4119 1231 3928 
Q 1006 3669 925 3112 
Q 844 2556 844 2016 
z
" transform="scale(0.015625)"/>
       </defs>
       <use xlink:href="#TimesNewRomanPSMT-30"/>
      </g>
     </g>
    </g>
    <g id="xtick_2">
     <g id="line2d_2">
      <g>
       <use xlink:href="#mb443598ccd" x="76.940882" y="131.518937" style="stroke: #000000; stroke-width: 0.8"/>
      </g>
     </g>
     <g id="text_2">
      <!-- 2 -->
      <g transform="translate(74.690882 144.768312) scale(0.09 -0.09)">
       <defs>
        <path id="TimesNewRomanPSMT-32" d="M 2934 816 
L 2638 0 
L 138 0 
L 138 116 
Q 1241 1122 1691 1759 
Q 2141 2397 2141 2925 
Q 2141 3328 1894 3587 
Q 1647 3847 1303 3847 
Q 991 3847 742 3664 
Q 494 3481 375 3128 
L 259 3128 
Q 338 3706 661 4015 
Q 984 4325 1469 4325 
Q 1984 4325 2329 3994 
Q 2675 3663 2675 3213 
Q 2675 2891 2525 2569 
Q 2294 2063 1775 1497 
Q 997 647 803 472 
L 1909 472 
Q 2247 472 2383 497 
Q 2519 522 2628 598 
Q 2738 675 2819 816 
L 2934 816 
z
" transform="scale(0.015625)"/>
       </defs>
       <use xlink:href="#TimesNewRomanPSMT-32"/>
      </g>
     </g>
    </g>
    <g id="xtick_3">
     <g id="line2d_3">
      <g>
       <use xlink:href="#mb443598ccd" x="105.621763" y="131.518937" style="stroke: #000000; stroke-width: 0.8"/>
      </g>
     </g>
     <g id="text_3">
      <!-- 4 -->
      <g transform="translate(103.371763 144.768312) scale(0.09 -0.09)">
       <defs>
        <path id="TimesNewRomanPSMT-34" d="M 2978 1563 
L 2978 1119 
L 2409 1119 
L 2409 0 
L 1894 0 
L 1894 1119 
L 100 1119 
L 100 1519 
L 2066 4325 
L 2409 4325 
L 2409 1563 
L 2978 1563 
z
M 1894 1563 
L 1894 3666 
L 406 1563 
L 1894 1563 
z
" transform="scale(0.015625)"/>
       </defs>
       <use xlink:href="#TimesNewRomanPSMT-34"/>
      </g>
     </g>
    </g>
    <g id="xtick_4">
     <g id="line2d_4">
      <g>
       <use xlink:href="#mb443598ccd" x="134.302645" y="131.518937" style="stroke: #000000; stroke-width: 0.8"/>
      </g>
     </g>
     <g id="text_4">
      <!-- 6 -->
      <g transform="translate(132.052645 144.768312) scale(0.09 -0.09)">
       <defs>
        <path id="TimesNewRomanPSMT-36" d="M 2869 4325 
L 2869 4209 
Q 2456 4169 2195 4045 
Q 1934 3922 1679 3669 
Q 1425 3416 1258 3105 
Q 1091 2794 978 2366 
Q 1428 2675 1881 2675 
Q 2316 2675 2634 2325 
Q 2953 1975 2953 1425 
Q 2953 894 2631 456 
Q 2244 -75 1606 -75 
Q 1172 -75 869 213 
Q 275 772 275 1663 
Q 275 2231 503 2743 
Q 731 3256 1154 3653 
Q 1578 4050 1965 4187 
Q 2353 4325 2688 4325 
L 2869 4325 
z
M 925 2138 
Q 869 1716 869 1456 
Q 869 1156 980 804 
Q 1091 453 1309 247 
Q 1469 100 1697 100 
Q 1969 100 2183 356 
Q 2397 613 2397 1088 
Q 2397 1622 2184 2012 
Q 1972 2403 1581 2403 
Q 1463 2403 1327 2353 
Q 1191 2303 925 2138 
z
" transform="scale(0.015625)"/>
       </defs>
       <use xlink:href="#TimesNewRomanPSMT-36"/>
      </g>
     </g>
    </g>
    <g id="xtick_5">
     <g id="line2d_5">
      <g>
       <use xlink:href="#mb443598ccd" x="162.983527" y="131.518937" style="stroke: #000000; stroke-width: 0.8"/>
      </g>
     </g>
     <g id="text_5">
      <!-- 8 -->
      <g transform="translate(160.733527 144.768312) scale(0.09 -0.09)">
       <defs>
        <path id="TimesNewRomanPSMT-38" d="M 1228 2134 
Q 725 2547 579 2797 
Q 434 3047 434 3316 
Q 434 3728 753 4026 
Q 1072 4325 1600 4325 
Q 2113 4325 2425 4047 
Q 2738 3769 2738 3413 
Q 2738 3175 2569 2928 
Q 2400 2681 1866 2347 
Q 2416 1922 2594 1678 
Q 2831 1359 2831 1006 
Q 2831 559 2490 242 
Q 2150 -75 1597 -75 
Q 994 -75 656 303 
Q 388 606 388 966 
Q 388 1247 577 1523 
Q 766 1800 1228 2134 
z
M 1719 2469 
Q 2094 2806 2194 3001 
Q 2294 3197 2294 3444 
Q 2294 3772 2109 3958 
Q 1925 4144 1606 4144 
Q 1288 4144 1088 3959 
Q 888 3775 888 3528 
Q 888 3366 970 3203 
Q 1053 3041 1206 2894 
L 1719 2469 
z
M 1375 2016 
Q 1116 1797 991 1539 
Q 866 1281 866 981 
Q 866 578 1086 336 
Q 1306 94 1647 94 
Q 1984 94 2187 284 
Q 2391 475 2391 747 
Q 2391 972 2272 1150 
Q 2050 1481 1375 2016 
z
" transform="scale(0.015625)"/>
       </defs>
       <use xlink:href="#TimesNewRomanPSMT-38"/>
      </g>
     </g>
    </g>
    <g id="xtick_6">
     <g id="line2d_6">
      <g>
       <use xlink:href="#mb443598ccd" x="191.664408" y="131.518937" style="stroke: #000000; stroke-width: 0.8"/>
      </g>
     </g>
     <g id="text_6">
      <!-- 10 -->
      <g transform="translate(187.164408 144.768312) scale(0.09 -0.09)">
       <defs>
        <path id="TimesNewRomanPSMT-31" d="M 750 3822 
L 1781 4325 
L 1884 4325 
L 1884 747 
Q 1884 391 1914 303 
Q 1944 216 2037 169 
Q 2131 122 2419 116 
L 2419 0 
L 825 0 
L 825 116 
Q 1125 122 1212 167 
Q 1300 213 1334 289 
Q 1369 366 1369 747 
L 1369 3034 
Q 1369 3497 1338 3628 
Q 1316 3728 1258 3775 
Q 1200 3822 1119 3822 
Q 1003 3822 797 3725 
L 750 3822 
z
" transform="scale(0.015625)"/>
       </defs>
       <use xlink:href="#TimesNewRomanPSMT-31"/>
       <use xlink:href="#TimesNewRomanPSMT-30" x="50"/>
      </g>
     </g>
    </g>
    <g id="text_7">
     <!-- $\overline{u}_x$ [m/s] -->
     <g transform="translate(114.175 156.942844) scale(0.09 -0.09)">
      <defs>
       <path id="Cmmi10-75" d="M 678 697 
Q 678 906 734 1126 
Q 791 1347 892 1617 
Q 994 1888 1069 2088 
Q 1153 2322 1153 2472 
Q 1153 2663 1013 2663 
Q 759 2663 595 2402 
Q 431 2141 353 1819 
Q 341 1778 300 1778 
L 225 1778 
Q 172 1778 172 1838 
L 172 1856 
Q 275 2238 487 2533 
Q 700 2828 1025 2828 
Q 1253 2828 1411 2678 
Q 1569 2528 1569 2297 
Q 1569 2178 1516 2047 
Q 1488 1969 1388 1706 
Q 1288 1444 1234 1272 
Q 1181 1100 1147 934 
Q 1113 769 1113 603 
Q 1113 391 1203 244 
Q 1294 97 1497 97 
Q 1906 97 2216 603 
Q 2222 628 2226 651 
Q 2231 675 2234 697 
L 2694 2553 
Q 2716 2638 2794 2698 
Q 2872 2759 2963 2759 
Q 3041 2759 3098 2709 
Q 3156 2659 3156 2578 
Q 3156 2541 3150 2528 
L 2688 684 
Q 2644 494 2644 372 
Q 2644 97 2828 97 
Q 3034 97 3136 351 
Q 3238 606 3309 941 
Q 3322 978 3359 978 
L 3438 978 
Q 3463 978 3478 956 
Q 3494 934 3494 916 
Q 3425 641 3361 444 
Q 3297 247 3159 87 
Q 3022 -72 2816 -72 
Q 2613 -72 2452 39 
Q 2291 150 2234 341 
Q 2088 153 1894 40 
Q 1700 -72 1484 -72 
Q 1116 -72 897 129 
Q 678 331 678 697 
z
" transform="scale(0.015625)"/>
       <path id="Cmmi10-78" d="M 500 184 
Q 613 97 819 97 
Q 1019 97 1172 289 
Q 1325 481 1381 709 
L 1672 1844 
Q 1741 2153 1741 2266 
Q 1741 2425 1652 2544 
Q 1563 2663 1403 2663 
Q 1200 2663 1022 2536 
Q 844 2409 722 2214 
Q 600 2019 550 1819 
Q 538 1778 500 1778 
L 422 1778 
Q 372 1778 372 1838 
L 372 1856 
Q 434 2094 584 2320 
Q 734 2547 951 2687 
Q 1169 2828 1416 2828 
Q 1650 2828 1839 2703 
Q 2028 2578 2106 2363 
Q 2216 2559 2386 2693 
Q 2556 2828 2759 2828 
Q 2897 2828 3040 2779 
Q 3184 2731 3275 2631 
Q 3366 2531 3366 2381 
Q 3366 2219 3261 2101 
Q 3156 1984 2994 1984 
Q 2891 1984 2822 2050 
Q 2753 2116 2753 2216 
Q 2753 2350 2845 2451 
Q 2938 2553 3066 2572 
Q 2950 2663 2747 2663 
Q 2541 2663 2389 2472 
Q 2238 2281 2175 2047 
L 1894 916 
Q 1825 659 1825 494 
Q 1825 331 1917 214 
Q 2009 97 2163 97 
Q 2463 97 2698 361 
Q 2934 625 3009 941 
Q 3022 978 3059 978 
L 3138 978 
Q 3163 978 3178 961 
Q 3194 944 3194 922 
Q 3194 916 3188 903 
Q 3097 522 2806 225 
Q 2516 -72 2150 -72 
Q 1916 -72 1727 54 
Q 1538 181 1459 397 
Q 1359 209 1182 68 
Q 1006 -72 806 -72 
Q 669 -72 523 -23 
Q 378 25 287 125 
Q 197 225 197 378 
Q 197 528 301 651 
Q 406 775 563 775 
Q 669 775 741 711 
Q 813 647 813 544 
Q 813 409 723 309 
Q 634 209 500 184 
z
" transform="scale(0.015625)"/>
       <path id="TimesNewRomanPSMT-20" transform="scale(0.015625)"/>
       <path id="TimesNewRomanPSMT-5b" d="M 1900 -1269 
L 525 -1269 
L 525 4334 
L 1900 4334 
L 1900 4088 
L 994 4088 
L 994 -1025 
L 1900 -1025 
L 1900 -1269 
z
" transform="scale(0.015625)"/>
       <path id="TimesNewRomanPSMT-6d" d="M 1050 2338 
Q 1363 2650 1419 2697 
Q 1559 2816 1721 2881 
Q 1884 2947 2044 2947 
Q 2313 2947 2506 2790 
Q 2700 2634 2766 2338 
Q 3088 2713 3309 2830 
Q 3531 2947 3766 2947 
Q 3994 2947 4170 2830 
Q 4347 2713 4450 2447 
Q 4519 2266 4519 1878 
L 4519 647 
Q 4519 378 4559 278 
Q 4591 209 4675 161 
Q 4759 113 4950 113 
L 4950 0 
L 3538 0 
L 3538 113 
L 3597 113 
Q 3781 113 3884 184 
Q 3956 234 3988 344 
Q 4000 397 4000 647 
L 4000 1878 
Q 4000 2228 3916 2372 
Q 3794 2572 3525 2572 
Q 3359 2572 3192 2489 
Q 3025 2406 2788 2181 
L 2781 2147 
L 2788 2013 
L 2788 647 
Q 2788 353 2820 281 
Q 2853 209 2943 161 
Q 3034 113 3253 113 
L 3253 0 
L 1806 0 
L 1806 113 
Q 2044 113 2133 169 
Q 2222 225 2256 338 
Q 2272 391 2272 647 
L 2272 1878 
Q 2272 2228 2169 2381 
Q 2031 2581 1784 2581 
Q 1616 2581 1450 2491 
Q 1191 2353 1050 2181 
L 1050 647 
Q 1050 366 1089 281 
Q 1128 197 1204 155 
Q 1281 113 1516 113 
L 1516 0 
L 100 0 
L 100 113 
Q 297 113 375 155 
Q 453 197 493 289 
Q 534 381 534 647 
L 534 1741 
Q 534 2213 506 2350 
Q 484 2453 437 2492 
Q 391 2531 309 2531 
Q 222 2531 100 2484 
L 53 2597 
L 916 2947 
L 1050 2947 
L 1050 2338 
z
" transform="scale(0.015625)"/>
       <path id="TimesNewRomanPSMT-2f" d="M 1794 4444 
L 259 -88 
L 9 -88 
L 1544 4444 
L 1794 4444 
z
" transform="scale(0.015625)"/>
       <path id="TimesNewRomanPSMT-73" d="M 2050 2947 
L 2050 1972 
L 1947 1972 
Q 1828 2431 1642 2597 
Q 1456 2763 1169 2763 
Q 950 2763 815 2647 
Q 681 2531 681 2391 
Q 681 2216 781 2091 
Q 878 1963 1175 1819 
L 1631 1597 
Q 2266 1288 2266 781 
Q 2266 391 1970 151 
Q 1675 -88 1309 -88 
Q 1047 -88 709 6 
Q 606 38 541 38 
Q 469 38 428 -44 
L 325 -44 
L 325 978 
L 428 978 
Q 516 541 762 319 
Q 1009 97 1316 97 
Q 1531 97 1667 223 
Q 1803 350 1803 528 
Q 1803 744 1651 891 
Q 1500 1038 1047 1263 
Q 594 1488 453 1669 
Q 313 1847 313 2119 
Q 313 2472 555 2709 
Q 797 2947 1181 2947 
Q 1350 2947 1591 2875 
Q 1750 2828 1803 2828 
Q 1853 2828 1881 2850 
Q 1909 2872 1947 2947 
L 2050 2947 
z
" transform="scale(0.015625)"/>
       <path id="TimesNewRomanPSMT-5d" d="M 234 4334 
L 1609 4334 
L 1609 -1272 
L 234 -1272 
L 234 -1025 
L 1141 -1025 
L 1141 4088 
L 234 4088 
L 234 4334 
z
" transform="scale(0.015625)"/>
      </defs>
      <use xlink:href="#Cmmi10-75" transform="translate(0 1.0625)"/>
      <use xlink:href="#Cmmi10-78" transform="translate(61.641875 -16.44375) scale(0.7)"/>
      <use xlink:href="#TimesNewRomanPSMT-20" transform="translate(107.975273 0.5625)"/>
      <use xlink:href="#TimesNewRomanPSMT-5b" transform="translate(132.975273 0.5625)"/>
      <use xlink:href="#TimesNewRomanPSMT-6d" transform="translate(166.276055 0.5625)"/>
      <use xlink:href="#TimesNewRomanPSMT-2f" transform="translate(244.059258 0.5625)"/>
      <use xlink:href="#TimesNewRomanPSMT-73" transform="translate(271.842461 0.5625)"/>
      <use xlink:href="#TimesNewRomanPSMT-5d" transform="translate(310.758477 0.5625)"/>
      <path d="M 0 57 
L 0 63.25 
L 57.177734 63.25 
L 57.177734 57 
L 0 57 
z
"/>
     </g>
    </g>
   </g>
   <g id="matplotlib.axis_2">
    <g id="ytick_1">
     <g id="line2d_7">
      <defs>
       <path id="m0ea18c19a7" d="M 0 0 
L -3.5 0 
" style="stroke: #000000; stroke-width: 0.8"/>
      </defs>
      <g>
       <use xlink:href="#m0ea18c19a7" x="48.26" y="131.518937" style="stroke: #000000; stroke-width: 0.8"/>
      </g>
     </g>
     <g id="text_8">
      <!-- 0.00 -->
      <g transform="translate(25.51 134.643625) scale(0.09 -0.09)">
       <defs>
        <path id="TimesNewRomanPSMT-2e" d="M 800 606 
Q 947 606 1047 504 
Q 1147 403 1147 259 
Q 1147 116 1045 14 
Q 944 -88 800 -88 
Q 656 -88 554 14 
Q 453 116 453 259 
Q 453 406 554 506 
Q 656 606 800 606 
z
" transform="scale(0.015625)"/>
       </defs>
       <use xlink:href="#TimesNewRomanPSMT-30"/>
       <use xlink:href="#TimesNewRomanPSMT-2e" x="50"/>
       <use xlink:href="#TimesNewRomanPSMT-30" x="75"/>
       <use xlink:href="#TimesNewRomanPSMT-30" x="125"/>
      </g>
     </g>
    </g>
    <g id="ytick_2">
     <g id="line2d_8">
      <g>
       <use xlink:href="#m0ea18c19a7" x="48.26" y="97.449305" style="stroke: #000000; stroke-width: 0.8"/>
      </g>
     </g>
     <g id="text_9">
      <!-- 0.02 -->
      <g transform="translate(25.51 100.573992) scale(0.09 -0.09)">
       <use xlink:href="#TimesNewRomanPSMT-30"/>
       <use xlink:href="#TimesNewRomanPSMT-2e" x="50"/>
       <use xlink:href="#TimesNewRomanPSMT-30" x="75"/>
       <use xlink:href="#TimesNewRomanPSMT-32" x="125"/>
      </g>
     </g>
    </g>
    <g id="ytick_3">
     <g id="line2d_9">
      <g>
       <use xlink:href="#m0ea18c19a7" x="48.26" y="63.379672" style="stroke: #000000; stroke-width: 0.8"/>
      </g>
     </g>
     <g id="text_10">
      <!-- 0.04 -->
      <g transform="translate(25.51 66.504359) scale(0.09 -0.09)">
       <use xlink:href="#TimesNewRomanPSMT-30"/>
       <use xlink:href="#TimesNewRomanPSMT-2e" x="50"/>
       <use xlink:href="#TimesNewRomanPSMT-30" x="75"/>
       <use xlink:href="#TimesNewRomanPSMT-34" x="125"/>
      </g>
     </g>
    </g>
    <g id="ytick_4">
     <g id="line2d_10">
      <g>
       <use xlink:href="#m0ea18c19a7" x="48.26" y="29.310039" style="stroke: #000000; stroke-width: 0.8"/>
      </g>
     </g>
     <g id="text_11">
      <!-- 0.06 -->
      <g transform="translate(25.51 32.434726) scale(0.09 -0.09)">
       <use xlink:href="#TimesNewRomanPSMT-30"/>
       <use xlink:href="#TimesNewRomanPSMT-2e" x="50"/>
       <use xlink:href="#TimesNewRomanPSMT-30" x="75"/>
       <use xlink:href="#TimesNewRomanPSMT-36" x="125"/>
      </g>
     </g>
    </g>
    <g id="text_12">
     <!-- $z$ [m] -->
     <g transform="translate(19.584844 80.339469) rotate(-90) scale(0.09 -0.09)">
      <defs>
       <path id="Cmmi10-7a" d="M 313 -72 
Q 263 -72 263 -13 
Q 263 19 275 31 
Q 447 328 689 598 
Q 931 869 1239 1145 
Q 1547 1422 1858 1700 
Q 2169 1978 2363 2194 
L 2338 2194 
Q 2197 2194 1925 2284 
Q 1653 2375 1497 2375 
Q 1328 2375 1168 2301 
Q 1009 2228 966 2075 
Q 956 2028 916 2028 
L 838 2028 
Q 788 2028 788 2094 
L 788 2113 
Q 838 2300 952 2462 
Q 1066 2625 1233 2726 
Q 1400 2828 1581 2828 
Q 1709 2828 1793 2770 
Q 1878 2713 1990 2591 
Q 2103 2469 2173 2416 
Q 2244 2363 2350 2363 
Q 2491 2363 2602 2491 
Q 2713 2619 2822 2809 
Q 2841 2828 2869 2828 
L 2944 2828 
Q 2966 2828 2980 2812 
Q 2994 2797 2994 2772 
Q 2994 2750 2981 2731 
Q 2809 2434 2579 2176 
Q 2350 1919 1979 1586 
Q 1609 1253 1354 1023 
Q 1100 794 878 550 
Q 928 563 1013 563 
Q 1169 563 1439 473 
Q 1709 384 1856 384 
Q 2016 384 2178 453 
Q 2341 522 2459 647 
Q 2578 772 2619 934 
Q 2634 978 2669 978 
L 2747 978 
Q 2772 978 2787 958 
Q 2803 938 2803 916 
Q 2803 909 2797 897 
Q 2738 653 2591 433 
Q 2444 213 2230 70 
Q 2016 -72 1772 -72 
Q 1650 -72 1565 -15 
Q 1481 41 1367 164 
Q 1253 288 1181 342 
Q 1109 397 1006 397 
Q 688 397 434 -50 
Q 413 -72 391 -72 
L 313 -72 
z
" transform="scale(0.015625)"/>
      </defs>
      <use xlink:href="#Cmmi10-7a" transform="translate(0 0.28125)"/>
      <use xlink:href="#TimesNewRomanPSMT-20" transform="translate(46.484375 0.28125)"/>
      <use xlink:href="#TimesNewRomanPSMT-5b" transform="translate(71.484375 0.28125)"/>
      <use xlink:href="#TimesNewRomanPSMT-6d" transform="translate(104.785156 0.28125)"/>
      <use xlink:href="#TimesNewRomanPSMT-5d" transform="translate(182.568359 0.28125)"/>
     </g>
    </g>
   </g>
   <g id="line2d_11">
    <path d="M 122.213653 127.089885 
L 132.696516 124.364315 
L 138.002479 121.638744 
L 142.634441 118.913173 
L 149.388789 113.462032 
L 155.239689 108.010891 
L 159.326714 102.55975 
L 163.657527 97.108608 
L 167.156595 91.657467 
L 169.508427 86.206326 
L 171.731196 80.755185 
L 173.150899 75.304043 
L 174.14039 69.852902 
L 175.043837 64.401761 
L 175.689157 58.950619 
L 175.517072 53.499478 
L 174.81439 48.048337 
L 174.81439 42.597196 
L 174.929114 37.146054 
L 175.760859 31.694913 
L 176.363158 26.243772 
L 174.642305 20.792631 
" clip-path="url(#pf6e0d1c317)" style="fill: none; stroke: #000000; stroke-width: 1.5; stroke-linecap: square"/>
    <defs>
     <path id="m184339b08d" d="M 0 3 
C 0.795609 3 1.55874 2.683901 2.12132 2.12132 
C 2.683901 1.55874 3 0.795609 3 0 
C 3 -0.795609 2.683901 -1.55874 2.12132 -2.12132 
C 1.55874 -2.683901 0.795609 -3 0 -3 
C -0.795609 -3 -1.55874 -2.683901 -2.12132 -2.12132 
C -2.683901 -1.55874 -3 -0.795609 -3 0 
C -3 0.795609 -2.683901 1.55874 -2.12132 2.12132 
C -1.55874 2.683901 -0.795609 3 0 3 
z
" style="stroke: #000000"/>
    </defs>
    <g clip-path="url(#pf6e0d1c317)">
     <use xlink:href="#m184339b08d" x="122.213653" y="127.089885" style="fill-opacity: 0; stroke: #000000"/>
     <use xlink:href="#m184339b08d" x="132.696516" y="124.364315" style="fill-opacity: 0; stroke: #000000"/>
     <use xlink:href="#m184339b08d" x="138.002479" y="121.638744" style="fill-opacity: 0; stroke: #000000"/>
     <use xlink:href="#m184339b08d" x="142.634441" y="118.913173" style="fill-opacity: 0; stroke: #000000"/>
     <use xlink:href="#m184339b08d" x="149.388789" y="113.462032" style="fill-opacity: 0; stroke: #000000"/>
     <use xlink:href="#m184339b08d" x="155.239689" y="108.010891" style="fill-opacity: 0; stroke: #000000"/>
     <use xlink:href="#m184339b08d" x="159.326714" y="102.55975" style="fill-opacity: 0; stroke: #000000"/>
     <use xlink:href="#m184339b08d" x="163.657527" y="97.108608" style="fill-opacity: 0; stroke: #000000"/>
     <use xlink:href="#m184339b08d" x="167.156595" y="91.657467" style="fill-opacity: 0; stroke: #000000"/>
     <use xlink:href="#m184339b08d" x="169.508427" y="86.206326" style="fill-opacity: 0; stroke: #000000"/>
     <use xlink:href="#m184339b08d" x="171.731196" y="80.755185" style="fill-opacity: 0; stroke: #000000"/>
     <use xlink:href="#m184339b08d" x="173.150899" y="75.304043" style="fill-opacity: 0; stroke: #000000"/>
     <use xlink:href="#m184339b08d" x="174.14039" y="69.852902" style="fill-opacity: 0; stroke: #000000"/>
     <use xlink:href="#m184339b08d" x="175.043837" y="64.401761" style="fill-opacity: 0; stroke: #000000"/>
     <use xlink:href="#m184339b08d" x="175.689157" y="58.950619" style="fill-opacity: 0; stroke: #000000"/>
     <use xlink:href="#m184339b08d" x="175.517072" y="53.499478" style="fill-opacity: 0; stroke: #000000"/>
     <use xlink:href="#m184339b08d" x="174.81439" y="48.048337" style="fill-opacity: 0; stroke: #000000"/>
     <use xlink:href="#m184339b08d" x="174.81439" y="42.597196" style="fill-opacity: 0; stroke: #000000"/>
     <use xlink:href="#m184339b08d" x="174.929114" y="37.146054" style="fill-opacity: 0; stroke: #000000"/>
     <use xlink:href="#m184339b08d" x="175.760859" y="31.694913" style="fill-opacity: 0; stroke: #000000"/>
     <use xlink:href="#m184339b08d" x="176.363158" y="26.243772" style="fill-opacity: 0; stroke: #000000"/>
     <use xlink:href="#m184339b08d" x="174.642305" y="20.792631" style="fill-opacity: 0; stroke: #000000"/>
    </g>
   </g>
   <g id="line2d_12">
    <path d="M 123.227159 127.089885 
L 128.991137 124.364315 
L 135.641985 121.638744 
L 138.341269 118.913173 
L 146.503044 113.462032 
L 153.351236 108.010891 
L 157.063714 102.55975 
L 162.800591 97.108608 
L 165.837345 91.657467 
L 169.107334 86.206326 
" clip-path="url(#pf6e0d1c317)" style="fill: none; stroke-dasharray: 5.55,2.4; stroke-dashoffset: 0; stroke: #0000ff; stroke-width: 1.5"/>
    <defs>
     <path id="m437f0d9ca6" d="M 0 3 
C 0.795609 3 1.55874 2.683901 2.12132 2.12132 
C 2.683901 1.55874 3 0.795609 3 0 
C 3 -0.795609 2.683901 -1.55874 2.12132 -2.12132 
C 1.55874 -2.683901 0.795609 -3 0 -3 
C -0.795609 -3 -1.55874 -2.683901 -2.12132 -2.12132 
C -2.683901 -1.55874 -3 -0.795609 -3 0 
C -3 0.795609 -2.683901 1.55874 -2.12132 2.12132 
C -1.55874 2.683901 -0.795609 3 0 3 
z
" style="stroke: #0000ff"/>
    </defs>
    <g clip-path="url(#pf6e0d1c317)">
     <use xlink:href="#m437f0d9ca6" x="123.227159" y="127.089885" style="fill-opacity: 0; stroke: #0000ff"/>
     <use xlink:href="#m437f0d9ca6" x="128.991137" y="124.364315" style="fill-opacity: 0; stroke: #0000ff"/>
     <use xlink:href="#m437f0d9ca6" x="135.641985" y="121.638744" style="fill-opacity: 0; stroke: #0000ff"/>
     <use xlink:href="#m437f0d9ca6" x="138.341269" y="118.913173" style="fill-opacity: 0; stroke: #0000ff"/>
     <use xlink:href="#m437f0d9ca6" x="146.503044" y="113.462032" style="fill-opacity: 0; stroke: #0000ff"/>
     <use xlink:href="#m437f0d9ca6" x="153.351236" y="108.010891" style="fill-opacity: 0; stroke: #0000ff"/>
     <use xlink:href="#m437f0d9ca6" x="157.063714" y="102.55975" style="fill-opacity: 0; stroke: #0000ff"/>
     <use xlink:href="#m437f0d9ca6" x="162.800591" y="97.108608" style="fill-opacity: 0; stroke: #0000ff"/>
     <use xlink:href="#m437f0d9ca6" x="165.837345" y="91.657467" style="fill-opacity: 0; stroke: #0000ff"/>
     <use xlink:href="#m437f0d9ca6" x="169.107334" y="86.206326" style="fill-opacity: 0; stroke: #0000ff"/>
    </g>
   </g>
   <g id="patch_3">
    <path d="M 48.26 131.518937 
L 48.26 9.72 
" style="fill: none; stroke: #000000; stroke-width: 0.8; stroke-linejoin: miter; stroke-linecap: square"/>
   </g>
   <g id="patch_4">
    <path d="M 211.14 131.518937 
L 211.14 9.72 
" style="fill: none; stroke: #000000; stroke-width: 0.8; stroke-linejoin: miter; stroke-linecap: square"/>
   </g>
   <g id="patch_5">
    <path d="M 48.26 131.518937 
L 211.14 131.518937 
" style="fill: none; stroke: #000000; stroke-width: 0.8; stroke-linejoin: miter; stroke-linecap: square"/>
   </g>
   <g id="patch_6">
    <path d="M 48.26 9.72 
L 211.14 9.72 
" style="fill: none; stroke: #000000; stroke-width: 0.8; stroke-linejoin: miter; stroke-linecap: square"/>
   </g>
   <g id="text_13">
    <!-- (a) -->
    <g transform="translate(56.404 125.428991) scale(0.09 -0.09)">
     <defs>
      <path id="TimesNewRomanPSMT-28" d="M 1988 -1253 
L 1988 -1369 
Q 1516 -1131 1200 -813 
Q 750 -359 506 256 
Q 263 872 263 1534 
Q 263 2503 741 3301 
Q 1219 4100 1988 4444 
L 1988 4313 
Q 1603 4100 1356 3731 
Q 1109 3363 987 2797 
Q 866 2231 866 1616 
Q 866 947 969 400 
Q 1050 -31 1165 -292 
Q 1281 -553 1476 -793 
Q 1672 -1034 1988 -1253 
z
" transform="scale(0.015625)"/>
      <path id="TimesNewRomanPSMT-61" d="M 1822 413 
Q 1381 72 1269 19 
Q 1100 -59 909 -59 
Q 613 -59 420 144 
Q 228 347 228 678 
Q 228 888 322 1041 
Q 450 1253 767 1440 
Q 1084 1628 1822 1897 
L 1822 2009 
Q 1822 2438 1686 2597 
Q 1550 2756 1291 2756 
Q 1094 2756 978 2650 
Q 859 2544 859 2406 
L 866 2225 
Q 866 2081 792 2003 
Q 719 1925 600 1925 
Q 484 1925 411 2006 
Q 338 2088 338 2228 
Q 338 2497 613 2722 
Q 888 2947 1384 2947 
Q 1766 2947 2009 2819 
Q 2194 2722 2281 2516 
Q 2338 2381 2338 1966 
L 2338 994 
Q 2338 584 2353 492 
Q 2369 400 2405 369 
Q 2441 338 2488 338 
Q 2538 338 2575 359 
Q 2641 400 2828 588 
L 2828 413 
Q 2478 -56 2159 -56 
Q 2006 -56 1915 50 
Q 1825 156 1822 413 
z
M 1822 616 
L 1822 1706 
Q 1350 1519 1213 1441 
Q 966 1303 859 1153 
Q 753 1003 753 825 
Q 753 600 887 451 
Q 1022 303 1197 303 
Q 1434 303 1822 616 
z
" transform="scale(0.015625)"/>
      <path id="TimesNewRomanPSMT-29" d="M 144 4313 
L 144 4444 
Q 619 4209 934 3891 
Q 1381 3434 1625 2820 
Q 1869 2206 1869 1541 
Q 1869 572 1392 -226 
Q 916 -1025 144 -1369 
L 144 -1253 
Q 528 -1038 776 -670 
Q 1025 -303 1145 264 
Q 1266 831 1266 1447 
Q 1266 2113 1163 2663 
Q 1084 3094 967 3353 
Q 850 3613 656 3853 
Q 463 4094 144 4313 
z
" transform="scale(0.015625)"/>
     </defs>
     <use xlink:href="#TimesNewRomanPSMT-28"/>
     <use xlink:href="#TimesNewRomanPSMT-61" x="33.300781"/>
     <use xlink:href="#TimesNewRomanPSMT-29" x="77.685547"/>
    </g>
   </g>
  </g>
  <g id="axes_2">
   <g id="patch_7">
    <path d="M 259.4 131.518937 
L 422.28 131.518937 
L 422.28 9.72 
L 259.4 9.72 
z
" style="fill: #ffffff"/>
   </g>
   <g id="PolyCollection_3">
    <defs>
     <path id="ma3a92ab7c0" d="M 405.54446 -45.710115 
L 375.774729 -45.710115 
L 378.634881 -48.435685 
L 346.617382 -51.161256 
L 340.107044 -53.886827 
L 330.931602 -59.337968 
L 312.651949 -64.789109 
L 309.190129 -70.24025 
L 299.826392 -75.691392 
L 293.50325 -81.142533 
L 288.344103 -86.593674 
L 294.415268 -86.593674 
L 294.415268 -86.593674 
L 300.89581 -81.142533 
L 308.272654 -75.691392 
L 315.749628 -70.24025 
L 327.588523 -64.789109 
L 356.063442 -59.337968 
L 362.462067 -53.886827 
L 380.053149 -51.161256 
L 397.609263 -48.435685 
L 405.54446 -45.710115 
z
" style="stroke: #0000ff; stroke-opacity: 0.3"/>
    </defs>
    <g clip-path="url(#p4df4147ce0)">
     <use xlink:href="#ma3a92ab7c0" x="0" y="172.8" style="fill: #0000ff; fill-opacity: 0.3; stroke: #0000ff; stroke-opacity: 0.3"/>
    </g>
   </g>
   <g id="PolyCollection_4">
    <defs>
     <path id="m27f43fe781" d="M 407.472727 -45.710115 
L 360.580442 -45.710115 
L 370.272127 -48.435685 
L 342.403853 -51.161256 
L 335.754233 -53.886827 
L 326.074617 -59.337968 
L 310.610953 -64.789109 
L 305.895676 -70.24025 
L 296.481055 -75.691392 
L 291.880198 -81.142533 
L 285.100287 -86.593674 
L 299.549374 -86.593674 
L 299.549374 -86.593674 
L 306.627747 -81.142533 
L 316.212478 -75.691392 
L 324.780995 -70.24025 
L 359.091498 -64.789109 
L 385.416654 -59.337968 
L 386.192487 -53.886827 
L 389.876406 -51.161256 
L 404.939101 -48.435685 
L 407.472727 -45.710115 
z
" style="stroke: #0000ff; stroke-opacity: 0.1"/>
    </defs>
    <g clip-path="url(#p4df4147ce0)">
     <use xlink:href="#m27f43fe781" x="0" y="172.8" style="fill: #0000ff; fill-opacity: 0.1; stroke: #0000ff; stroke-opacity: 0.1"/>
    </g>
   </g>
   <g id="matplotlib.axis_3">
    <g id="xtick_7">
     <g id="line2d_13">
      <g>
       <use xlink:href="#mb443598ccd" x="259.4" y="131.518937" style="stroke: #000000; stroke-width: 0.8"/>
      </g>
     </g>
     <g id="text_14">
      <!-- 0.0 -->
      <g transform="translate(253.775 144.768312) scale(0.09 -0.09)">
       <use xlink:href="#TimesNewRomanPSMT-30"/>
       <use xlink:href="#TimesNewRomanPSMT-2e" x="50"/>
       <use xlink:href="#TimesNewRomanPSMT-30" x="75"/>
      </g>
     </g>
    </g>
    <g id="xtick_8">
     <g id="line2d_14">
      <g>
       <use xlink:href="#mb443598ccd" x="302.149298" y="131.518937" style="stroke: #000000; stroke-width: 0.8"/>
      </g>
     </g>
     <g id="text_15">
      <!-- 0.1 -->
      <g transform="translate(296.524298 144.768312) scale(0.09 -0.09)">
       <use xlink:href="#TimesNewRomanPSMT-30"/>
       <use xlink:href="#TimesNewRomanPSMT-2e" x="50"/>
       <use xlink:href="#TimesNewRomanPSMT-31" x="75"/>
      </g>
     </g>
    </g>
    <g id="xtick_9">
     <g id="line2d_15">
      <g>
       <use xlink:href="#mb443598ccd" x="344.898596" y="131.518937" style="stroke: #000000; stroke-width: 0.8"/>
      </g>
     </g>
     <g id="text_16">
      <!-- 0.2 -->
      <g transform="translate(339.273596 144.768312) scale(0.09 -0.09)">
       <use xlink:href="#TimesNewRomanPSMT-30"/>
       <use xlink:href="#TimesNewRomanPSMT-2e" x="50"/>
       <use xlink:href="#TimesNewRomanPSMT-32" x="75"/>
      </g>
     </g>
    </g>
    <g id="xtick_10">
     <g id="line2d_16">
      <g>
       <use xlink:href="#mb443598ccd" x="387.647894" y="131.518937" style="stroke: #000000; stroke-width: 0.8"/>
      </g>
     </g>
     <g id="text_17">
      <!-- 0.3 -->
      <g transform="translate(382.022894 144.768312) scale(0.09 -0.09)">
       <defs>
        <path id="TimesNewRomanPSMT-33" d="M 325 3431 
Q 506 3859 782 4092 
Q 1059 4325 1472 4325 
Q 1981 4325 2253 3994 
Q 2459 3747 2459 3466 
Q 2459 3003 1878 2509 
Q 2269 2356 2469 2072 
Q 2669 1788 2669 1403 
Q 2669 853 2319 450 
Q 1863 -75 997 -75 
Q 569 -75 414 31 
Q 259 138 259 259 
Q 259 350 332 419 
Q 406 488 509 488 
Q 588 488 669 463 
Q 722 447 909 348 
Q 1097 250 1169 231 
Q 1284 197 1416 197 
Q 1734 197 1970 444 
Q 2206 691 2206 1028 
Q 2206 1275 2097 1509 
Q 2016 1684 1919 1775 
Q 1784 1900 1550 2001 
Q 1316 2103 1072 2103 
L 972 2103 
L 972 2197 
Q 1219 2228 1467 2375 
Q 1716 2522 1828 2728 
Q 1941 2934 1941 3181 
Q 1941 3503 1739 3701 
Q 1538 3900 1238 3900 
Q 753 3900 428 3381 
L 325 3431 
z
" transform="scale(0.015625)"/>
       </defs>
       <use xlink:href="#TimesNewRomanPSMT-30"/>
       <use xlink:href="#TimesNewRomanPSMT-2e" x="50"/>
       <use xlink:href="#TimesNewRomanPSMT-33" x="75"/>
      </g>
     </g>
    </g>
    <g id="text_18">
     <!-- $\mathrm{T}_{u,x}$ [m/s] -->
     <g transform="translate(321.445 156.993469) scale(0.09 -0.09)">
      <defs>
       <path id="Cmr10-54" d="M 1081 0 
L 1081 225 
Q 1403 225 1706 261 
Q 2009 297 2009 428 
L 2009 3944 
Q 2009 4081 1932 4114 
Q 1856 4147 1684 4147 
L 1416 4147 
Q 888 4147 666 3916 
Q 550 3800 500 3545 
Q 450 3291 416 2906 
L 231 2906 
L 353 4372 
L 4263 4372 
L 4384 2906 
L 4197 2906 
Q 4159 3319 4114 3561 
Q 4069 3803 3950 3916 
Q 3725 4147 3200 4147 
L 2931 4147 
Q 2816 4147 2752 4137 
Q 2688 4128 2647 4083 
Q 2606 4038 2606 3944 
L 2606 428 
Q 2606 297 2909 261 
Q 3213 225 3531 225 
L 3531 0 
L 1081 0 
z
" transform="scale(0.015625)"/>
       <path id="Cmmi10-3b" d="M 634 -1153 
Q 634 -1125 659 -1100 
Q 891 -878 1019 -587 
Q 1147 -297 1147 25 
L 1147 103 
Q 1044 0 891 0 
Q 744 0 641 103 
Q 538 206 538 353 
Q 538 503 641 603 
Q 744 703 891 703 
Q 1119 703 1216 492 
Q 1313 281 1313 25 
Q 1313 -331 1170 -651 
Q 1028 -972 769 -1228 
Q 744 -1241 728 -1241 
Q 697 -1241 665 -1212 
Q 634 -1184 634 -1153 
z
" transform="scale(0.015625)"/>
      </defs>
      <use xlink:href="#Cmr10-54" transform="translate(0 0.5625)"/>
      <use xlink:href="#Cmmi10-75" transform="translate(76.680937 -16.44375) scale(0.7)"/>
      <use xlink:href="#Cmmi10-3b" transform="translate(116.705352 -16.44375) scale(0.7)"/>
      <use xlink:href="#Cmmi10-78" transform="translate(148.37625 -16.44375) scale(0.7)"/>
      <use xlink:href="#TimesNewRomanPSMT-20" transform="translate(194.709648 0.5625)"/>
      <use xlink:href="#TimesNewRomanPSMT-5b" transform="translate(219.709648 0.5625)"/>
      <use xlink:href="#TimesNewRomanPSMT-6d" transform="translate(253.01043 0.5625)"/>
      <use xlink:href="#TimesNewRomanPSMT-2f" transform="translate(330.793633 0.5625)"/>
      <use xlink:href="#TimesNewRomanPSMT-73" transform="translate(358.576836 0.5625)"/>
      <use xlink:href="#TimesNewRomanPSMT-5d" transform="translate(397.492852 0.5625)"/>
     </g>
    </g>
   </g>
   <g id="matplotlib.axis_4">
    <g id="ytick_5">
     <g id="line2d_17">
      <g>
       <use xlink:href="#m0ea18c19a7" x="259.4" y="131.518937" style="stroke: #000000; stroke-width: 0.8"/>
      </g>
     </g>
     <g id="text_19">
      <!-- 0.00 -->
      <g transform="translate(236.65 134.643625) scale(0.09 -0.09)">
       <use xlink:href="#TimesNewRomanPSMT-30"/>
       <use xlink:href="#TimesNewRomanPSMT-2e" x="50"/>
       <use xlink:href="#TimesNewRomanPSMT-30" x="75"/>
       <use xlink:href="#TimesNewRomanPSMT-30" x="125"/>
      </g>
     </g>
    </g>
    <g id="ytick_6">
     <g id="line2d_18">
      <g>
       <use xlink:href="#m0ea18c19a7" x="259.4" y="97.449305" style="stroke: #000000; stroke-width: 0.8"/>
      </g>
     </g>
     <g id="text_20">
      <!-- 0.02 -->
      <g transform="translate(236.65 100.573992) scale(0.09 -0.09)">
       <use xlink:href="#TimesNewRomanPSMT-30"/>
       <use xlink:href="#TimesNewRomanPSMT-2e" x="50"/>
       <use xlink:href="#TimesNewRomanPSMT-30" x="75"/>
       <use xlink:href="#TimesNewRomanPSMT-32" x="125"/>
      </g>
     </g>
    </g>
    <g id="ytick_7">
     <g id="line2d_19">
      <g>
       <use xlink:href="#m0ea18c19a7" x="259.4" y="63.379672" style="stroke: #000000; stroke-width: 0.8"/>
      </g>
     </g>
     <g id="text_21">
      <!-- 0.04 -->
      <g transform="translate(236.65 66.504359) scale(0.09 -0.09)">
       <use xlink:href="#TimesNewRomanPSMT-30"/>
       <use xlink:href="#TimesNewRomanPSMT-2e" x="50"/>
       <use xlink:href="#TimesNewRomanPSMT-30" x="75"/>
       <use xlink:href="#TimesNewRomanPSMT-34" x="125"/>
      </g>
     </g>
    </g>
    <g id="ytick_8">
     <g id="line2d_20">
      <g>
       <use xlink:href="#m0ea18c19a7" x="259.4" y="29.310039" style="stroke: #000000; stroke-width: 0.8"/>
      </g>
     </g>
     <g id="text_22">
      <!-- 0.06 -->
      <g transform="translate(236.65 32.434726) scale(0.09 -0.09)">
       <use xlink:href="#TimesNewRomanPSMT-30"/>
       <use xlink:href="#TimesNewRomanPSMT-2e" x="50"/>
       <use xlink:href="#TimesNewRomanPSMT-30" x="75"/>
       <use xlink:href="#TimesNewRomanPSMT-36" x="125"/>
      </g>
     </g>
    </g>
    <g id="text_23">
     <!-- $z$ [m] -->
     <g transform="translate(230.724844 80.339469) rotate(-90) scale(0.09 -0.09)">
      <use xlink:href="#Cmmi10-7a" transform="translate(0 0.28125)"/>
      <use xlink:href="#TimesNewRomanPSMT-20" transform="translate(46.484375 0.28125)"/>
      <use xlink:href="#TimesNewRomanPSMT-5b" transform="translate(71.484375 0.28125)"/>
      <use xlink:href="#TimesNewRomanPSMT-6d" transform="translate(104.785156 0.28125)"/>
      <use xlink:href="#TimesNewRomanPSMT-5d" transform="translate(182.568359 0.28125)"/>
     </g>
    </g>
   </g>
   <g id="line2d_21">
    <path d="M 387.308022 127.089885 
L 353.640131 124.364315 
L 339.939186 121.638744 
L 332.023789 118.913173 
L 322.99049 113.462032 
L 312.234923 108.010891 
L 305.599048 102.55975 
L 300.146504 97.108608 
L 294.977151 91.657467 
L 292.416312 86.206326 
L 290.38207 80.755185 
L 288.360944 75.304043 
L 287.451487 69.852902 
L 286.864768 64.401761 
L 286.148379 58.950619 
L 283.727694 53.499478 
L 279.987481 48.048337 
L 286.38171 42.597196 
L 287.712396 37.146054 
L 288.489332 31.694913 
L 285.576946 26.243772 
L 274.097648 20.792631 
" clip-path="url(#p4df4147ce0)" style="fill: none; stroke: #000000; stroke-width: 1.5; stroke-linecap: square"/>
    <g clip-path="url(#p4df4147ce0)">
     <use xlink:href="#m184339b08d" x="387.308022" y="127.089885" style="fill-opacity: 0; stroke: #000000"/>
     <use xlink:href="#m184339b08d" x="353.640131" y="124.364315" style="fill-opacity: 0; stroke: #000000"/>
     <use xlink:href="#m184339b08d" x="339.939186" y="121.638744" style="fill-opacity: 0; stroke: #000000"/>
     <use xlink:href="#m184339b08d" x="332.023789" y="118.913173" style="fill-opacity: 0; stroke: #000000"/>
     <use xlink:href="#m184339b08d" x="322.99049" y="113.462032" style="fill-opacity: 0; stroke: #000000"/>
     <use xlink:href="#m184339b08d" x="312.234923" y="108.010891" style="fill-opacity: 0; stroke: #000000"/>
     <use xlink:href="#m184339b08d" x="305.599048" y="102.55975" style="fill-opacity: 0; stroke: #000000"/>
     <use xlink:href="#m184339b08d" x="300.146504" y="97.108608" style="fill-opacity: 0; stroke: #000000"/>
     <use xlink:href="#m184339b08d" x="294.977151" y="91.657467" style="fill-opacity: 0; stroke: #000000"/>
     <use xlink:href="#m184339b08d" x="292.416312" y="86.206326" style="fill-opacity: 0; stroke: #000000"/>
     <use xlink:href="#m184339b08d" x="290.38207" y="80.755185" style="fill-opacity: 0; stroke: #000000"/>
     <use xlink:href="#m184339b08d" x="288.360944" y="75.304043" style="fill-opacity: 0; stroke: #000000"/>
     <use xlink:href="#m184339b08d" x="287.451487" y="69.852902" style="fill-opacity: 0; stroke: #000000"/>
     <use xlink:href="#m184339b08d" x="286.864768" y="64.401761" style="fill-opacity: 0; stroke: #000000"/>
     <use xlink:href="#m184339b08d" x="286.148379" y="58.950619" style="fill-opacity: 0; stroke: #000000"/>
     <use xlink:href="#m184339b08d" x="283.727694" y="53.499478" style="fill-opacity: 0; stroke: #000000"/>
     <use xlink:href="#m184339b08d" x="279.987481" y="48.048337" style="fill-opacity: 0; stroke: #000000"/>
     <use xlink:href="#m184339b08d" x="286.38171" y="42.597196" style="fill-opacity: 0; stroke: #000000"/>
     <use xlink:href="#m184339b08d" x="287.712396" y="37.146054" style="fill-opacity: 0; stroke: #000000"/>
     <use xlink:href="#m184339b08d" x="288.489332" y="31.694913" style="fill-opacity: 0; stroke: #000000"/>
     <use xlink:href="#m184339b08d" x="285.576946" y="26.243772" style="fill-opacity: 0; stroke: #000000"/>
     <use xlink:href="#m184339b08d" x="274.097648" y="20.792631" style="fill-opacity: 0; stroke: #000000"/>
    </g>
   </g>
   <g id="line2d_22">
    <path d="M 394.982 127.089885 
L 389.512204 124.364315 
L 362.129458 121.638744 
L 346.617382 118.913173 
L 343.998967 113.462032 
L 318.450036 108.010891 
L 312.988872 102.55975 
L 302.696943 97.108608 
L 296.098098 91.657467 
L 291.895228 86.206326 
" clip-path="url(#p4df4147ce0)" style="fill: none; stroke-dasharray: 5.55,2.4; stroke-dashoffset: 0; stroke: #0000ff; stroke-width: 1.5"/>
    <g clip-path="url(#p4df4147ce0)">
     <use xlink:href="#m437f0d9ca6" x="394.982" y="127.089885" style="fill-opacity: 0; stroke: #0000ff"/>
     <use xlink:href="#m437f0d9ca6" x="389.512204" y="124.364315" style="fill-opacity: 0; stroke: #0000ff"/>
     <use xlink:href="#m437f0d9ca6" x="362.129458" y="121.638744" style="fill-opacity: 0; stroke: #0000ff"/>
     <use xlink:href="#m437f0d9ca6" x="346.617382" y="118.913173" style="fill-opacity: 0; stroke: #0000ff"/>
     <use xlink:href="#m437f0d9ca6" x="343.998967" y="113.462032" style="fill-opacity: 0; stroke: #0000ff"/>
     <use xlink:href="#m437f0d9ca6" x="318.450036" y="108.010891" style="fill-opacity: 0; stroke: #0000ff"/>
     <use xlink:href="#m437f0d9ca6" x="312.988872" y="102.55975" style="fill-opacity: 0; stroke: #0000ff"/>
     <use xlink:href="#m437f0d9ca6" x="302.696943" y="97.108608" style="fill-opacity: 0; stroke: #0000ff"/>
     <use xlink:href="#m437f0d9ca6" x="296.098098" y="91.657467" style="fill-opacity: 0; stroke: #0000ff"/>
     <use xlink:href="#m437f0d9ca6" x="291.895228" y="86.206326" style="fill-opacity: 0; stroke: #0000ff"/>
    </g>
   </g>
   <g id="patch_8">
    <path d="M 259.4 131.518937 
L 259.4 9.72 
" style="fill: none; stroke: #000000; stroke-width: 0.8; stroke-linejoin: miter; stroke-linecap: square"/>
   </g>
   <g id="patch_9">
    <path d="M 422.28 131.518937 
L 422.28 9.72 
" style="fill: none; stroke: #000000; stroke-width: 0.8; stroke-linejoin: miter; stroke-linecap: square"/>
   </g>
   <g id="patch_10">
    <path d="M 259.4 131.518937 
L 422.28 131.518937 
" style="fill: none; stroke: #000000; stroke-width: 0.8; stroke-linejoin: miter; stroke-linecap: square"/>
   </g>
   <g id="patch_11">
    <path d="M 259.4 9.72 
L 422.28 9.72 
" style="fill: none; stroke: #000000; stroke-width: 0.8; stroke-linejoin: miter; stroke-linecap: square"/>
   </g>
   <g id="text_24">
    <!-- (b) -->
    <g transform="translate(267.544 125.428991) scale(0.09 -0.09)">
     <defs>
      <path id="TimesNewRomanPSMT-62" d="M 984 2369 
Q 1400 2947 1881 2947 
Q 2322 2947 2650 2570 
Q 2978 2194 2978 1541 
Q 2978 778 2472 313 
Q 2038 -88 1503 -88 
Q 1253 -88 995 3 
Q 738 94 469 275 
L 469 3241 
Q 469 3728 445 3840 
Q 422 3953 372 3993 
Q 322 4034 247 4034 
Q 159 4034 28 3984 
L -16 4094 
L 844 4444 
L 984 4444 
L 984 2369 
z
M 984 2169 
L 984 456 
Q 1144 300 1314 220 
Q 1484 141 1663 141 
Q 1947 141 2192 453 
Q 2438 766 2438 1363 
Q 2438 1913 2192 2208 
Q 1947 2503 1634 2503 
Q 1469 2503 1303 2419 
Q 1178 2356 984 2169 
z
" transform="scale(0.015625)"/>
     </defs>
     <use xlink:href="#TimesNewRomanPSMT-28"/>
     <use xlink:href="#TimesNewRomanPSMT-62" x="33.300781"/>
     <use xlink:href="#TimesNewRomanPSMT-29" x="83.300781"/>
    </g>
   </g>
   <g id="legend_1">
    <g id="patch_12">
     <path d="M 331.703438 67.820625 
L 415.98 67.820625 
Q 417.78 67.820625 417.78 66.020625 
L 417.78 16.02 
Q 417.78 14.22 415.98 14.22 
L 331.703438 14.22 
Q 329.903438 14.22 329.903438 16.02 
L 329.903438 66.020625 
Q 329.903438 67.820625 331.703438 67.820625 
z
" style="fill: #ffffff; opacity: 0.8; stroke: #cccccc; stroke-linejoin: miter"/>
    </g>
    <g id="line2d_23">
     <path d="M 333.503438 20.97 
L 342.503438 20.97 
L 351.503438 20.97 
" style="fill: none; stroke: #000000; stroke-width: 1.5; stroke-linecap: square"/>
     <g>
      <use xlink:href="#m184339b08d" x="342.503438" y="20.97" style="fill-opacity: 0; stroke: #000000"/>
     </g>
    </g>
    <g id="text_25">
     <!-- awcc -->
     <g transform="translate(358.703438 24.12) scale(0.09 -0.09)">
      <defs>
       <path id="TimesNewRomanPSMT-77" d="M 41 2863 
L 1241 2863 
L 1241 2747 
Q 1075 2734 1023 2687 
Q 972 2641 972 2553 
Q 972 2456 1025 2319 
L 1638 672 
L 2253 2013 
L 2091 2434 
Q 2016 2622 1894 2694 
Q 1825 2738 1638 2747 
L 1638 2863 
L 3000 2863 
L 3000 2747 
Q 2775 2738 2681 2666 
Q 2619 2616 2619 2506 
Q 2619 2444 2644 2378 
L 3294 734 
L 3897 2319 
Q 3959 2488 3959 2588 
Q 3959 2647 3898 2694 
Q 3838 2741 3659 2747 
L 3659 2863 
L 4563 2863 
L 4563 2747 
Q 4291 2706 4163 2378 
L 3206 -88 
L 3078 -88 
L 2363 1741 
L 1528 -88 
L 1413 -88 
L 494 2319 
Q 403 2547 315 2626 
Q 228 2706 41 2747 
L 41 2863 
z
" transform="scale(0.015625)"/>
       <path id="TimesNewRomanPSMT-63" d="M 2631 1088 
Q 2516 522 2178 217 
Q 1841 -88 1431 -88 
Q 944 -88 581 321 
Q 219 731 219 1428 
Q 219 2103 620 2525 
Q 1022 2947 1584 2947 
Q 2006 2947 2278 2723 
Q 2550 2500 2550 2259 
Q 2550 2141 2473 2067 
Q 2397 1994 2259 1994 
Q 2075 1994 1981 2113 
Q 1928 2178 1911 2362 
Q 1894 2547 1784 2644 
Q 1675 2738 1481 2738 
Q 1169 2738 978 2506 
Q 725 2200 725 1697 
Q 725 1184 976 792 
Q 1228 400 1656 400 
Q 1963 400 2206 609 
Q 2378 753 2541 1131 
L 2631 1088 
z
" transform="scale(0.015625)"/>
      </defs>
      <use xlink:href="#TimesNewRomanPSMT-61"/>
      <use xlink:href="#TimesNewRomanPSMT-77" x="44.384766"/>
      <use xlink:href="#TimesNewRomanPSMT-63" x="116.601562"/>
      <use xlink:href="#TimesNewRomanPSMT-63" x="160.986328"/>
     </g>
    </g>
    <g id="line2d_24">
     <path d="M 333.503438 33.695156 
L 342.503438 33.695156 
L 351.503438 33.695156 
" style="fill: none; stroke-dasharray: 5.55,2.4; stroke-dashoffset: 0; stroke: #0000ff; stroke-width: 1.5"/>
     <g>
      <use xlink:href="#m437f0d9ca6" x="342.503438" y="33.695156" style="fill-opacity: 0; stroke: #0000ff"/>
     </g>
    </g>
    <g id="text_26">
     <!-- corr. (50%-tile) -->
     <g transform="translate(358.703438 36.845156) scale(0.09 -0.09)">
      <defs>
       <path id="TimesNewRomanPSMT-6f" d="M 1600 2947 
Q 2250 2947 2644 2453 
Q 2978 2031 2978 1484 
Q 2978 1100 2793 706 
Q 2609 313 2286 112 
Q 1963 -88 1566 -88 
Q 919 -88 538 428 
Q 216 863 216 1403 
Q 216 1797 411 2186 
Q 606 2575 925 2761 
Q 1244 2947 1600 2947 
z
M 1503 2744 
Q 1338 2744 1170 2645 
Q 1003 2547 900 2300 
Q 797 2053 797 1666 
Q 797 1041 1045 587 
Q 1294 134 1700 134 
Q 2003 134 2200 384 
Q 2397 634 2397 1244 
Q 2397 2006 2069 2444 
Q 1847 2744 1503 2744 
z
" transform="scale(0.015625)"/>
       <path id="TimesNewRomanPSMT-72" d="M 1038 2947 
L 1038 2303 
Q 1397 2947 1775 2947 
Q 1947 2947 2059 2842 
Q 2172 2738 2172 2600 
Q 2172 2478 2090 2393 
Q 2009 2309 1897 2309 
Q 1788 2309 1652 2417 
Q 1516 2525 1450 2525 
Q 1394 2525 1328 2463 
Q 1188 2334 1038 2041 
L 1038 669 
Q 1038 431 1097 309 
Q 1138 225 1241 169 
Q 1344 113 1538 113 
L 1538 0 
L 72 0 
L 72 113 
Q 291 113 397 181 
Q 475 231 506 341 
Q 522 394 522 644 
L 522 1753 
Q 522 2253 501 2348 
Q 481 2444 426 2487 
Q 372 2531 291 2531 
Q 194 2531 72 2484 
L 41 2597 
L 906 2947 
L 1038 2947 
z
" transform="scale(0.015625)"/>
       <path id="TimesNewRomanPSMT-35" d="M 2778 4238 
L 2534 3706 
L 1259 3706 
L 981 3138 
Q 1809 3016 2294 2522 
Q 2709 2097 2709 1522 
Q 2709 1188 2573 903 
Q 2438 619 2231 419 
Q 2025 219 1772 97 
Q 1413 -75 1034 -75 
Q 653 -75 479 54 
Q 306 184 306 341 
Q 306 428 378 495 
Q 450 563 559 563 
Q 641 563 702 538 
Q 763 513 909 409 
Q 1144 247 1384 247 
Q 1750 247 2026 523 
Q 2303 800 2303 1197 
Q 2303 1581 2056 1914 
Q 1809 2247 1375 2428 
Q 1034 2569 447 2591 
L 1259 4238 
L 2778 4238 
z
" transform="scale(0.015625)"/>
       <path id="TimesNewRomanPSMT-25" d="M 4350 4334 
L 1263 -175 
L 984 -175 
L 4072 4334 
L 4350 4334 
z
M 1138 4334 
Q 1559 4334 1792 3984 
Q 2025 3634 2025 3181 
Q 2025 2638 1762 2341 
Q 1500 2044 1131 2044 
Q 884 2044 678 2180 
Q 472 2316 348 2584 
Q 225 2853 225 3181 
Q 225 3509 350 3786 
Q 475 4063 692 4198 
Q 909 4334 1138 4334 
z
M 1128 4159 
Q 969 4159 845 3971 
Q 722 3784 722 3184 
Q 722 2750 791 2522 
Q 844 2350 956 2256 
Q 1022 2200 1119 2200 
Q 1269 2200 1375 2363 
Q 1531 2603 1531 3166 
Q 1531 3759 1378 4000 
Q 1278 4159 1128 4159 
z
M 4206 2103 
Q 4428 2103 4648 1962 
Q 4869 1822 4989 1553 
Q 5109 1284 5109 963 
Q 5109 409 4843 117 
Q 4578 -175 4216 -175 
Q 3988 -175 3773 -34 
Q 3559 106 3436 367 
Q 3313 628 3313 963 
Q 3313 1291 3436 1562 
Q 3559 1834 3773 1968 
Q 3988 2103 4206 2103 
z
M 4209 1938 
Q 4059 1938 3950 1769 
Q 3809 1550 3809 941 
Q 3809 381 3953 159 
Q 4059 0 4209 0 
Q 4353 0 4466 172 
Q 4616 400 4616 956 
Q 4616 1544 4466 1778 
Q 4363 1938 4209 1938 
z
" transform="scale(0.015625)"/>
       <path id="TimesNewRomanPSMT-2d" d="M 259 1672 
L 1875 1672 
L 1875 1200 
L 259 1200 
L 259 1672 
z
" transform="scale(0.015625)"/>
       <path id="TimesNewRomanPSMT-74" d="M 1031 3803 
L 1031 2863 
L 1700 2863 
L 1700 2644 
L 1031 2644 
L 1031 788 
Q 1031 509 1111 412 
Q 1191 316 1316 316 
Q 1419 316 1516 380 
Q 1613 444 1666 569 
L 1788 569 
Q 1678 263 1478 108 
Q 1278 -47 1066 -47 
Q 922 -47 784 33 
Q 647 113 581 261 
Q 516 409 516 719 
L 516 2644 
L 63 2644 
L 63 2747 
Q 234 2816 414 2980 
Q 594 3144 734 3369 
Q 806 3488 934 3803 
L 1031 3803 
z
" transform="scale(0.015625)"/>
       <path id="TimesNewRomanPSMT-69" d="M 928 4444 
Q 1059 4444 1151 4351 
Q 1244 4259 1244 4128 
Q 1244 3997 1151 3903 
Q 1059 3809 928 3809 
Q 797 3809 703 3903 
Q 609 3997 609 4128 
Q 609 4259 701 4351 
Q 794 4444 928 4444 
z
M 1188 2947 
L 1188 647 
Q 1188 378 1227 289 
Q 1266 200 1342 156 
Q 1419 113 1622 113 
L 1622 0 
L 231 0 
L 231 113 
Q 441 113 512 153 
Q 584 194 626 287 
Q 669 381 669 647 
L 669 1750 
Q 669 2216 641 2353 
Q 619 2453 572 2492 
Q 525 2531 444 2531 
Q 356 2531 231 2484 
L 188 2597 
L 1050 2947 
L 1188 2947 
z
" transform="scale(0.015625)"/>
       <path id="TimesNewRomanPSMT-6c" d="M 1184 4444 
L 1184 647 
Q 1184 378 1223 290 
Q 1263 203 1344 158 
Q 1425 113 1647 113 
L 1647 0 
L 244 0 
L 244 113 
Q 441 113 512 153 
Q 584 194 625 287 
Q 666 381 666 647 
L 666 3247 
Q 666 3731 644 3842 
Q 622 3953 573 3993 
Q 525 4034 450 4034 
Q 369 4034 244 3984 
L 191 4094 
L 1044 4444 
L 1184 4444 
z
" transform="scale(0.015625)"/>
       <path id="TimesNewRomanPSMT-65" d="M 681 1784 
Q 678 1147 991 784 
Q 1303 422 1725 422 
Q 2006 422 2214 576 
Q 2422 731 2563 1106 
L 2659 1044 
Q 2594 616 2278 264 
Q 1963 -88 1488 -88 
Q 972 -88 605 314 
Q 238 716 238 1394 
Q 238 2128 614 2539 
Q 991 2950 1559 2950 
Q 2041 2950 2350 2633 
Q 2659 2316 2659 1784 
L 681 1784 
z
M 681 1966 
L 2006 1966 
Q 1991 2241 1941 2353 
Q 1863 2528 1708 2628 
Q 1553 2728 1384 2728 
Q 1125 2728 920 2526 
Q 716 2325 681 1966 
z
" transform="scale(0.015625)"/>
      </defs>
      <use xlink:href="#TimesNewRomanPSMT-63"/>
      <use xlink:href="#TimesNewRomanPSMT-6f" x="44.384766"/>
      <use xlink:href="#TimesNewRomanPSMT-72" x="94.384766"/>
      <use xlink:href="#TimesNewRomanPSMT-72" x="127.685547"/>
      <use xlink:href="#TimesNewRomanPSMT-2e" x="155.486328"/>
      <use xlink:href="#TimesNewRomanPSMT-20" x="180.486328"/>
      <use xlink:href="#TimesNewRomanPSMT-28" x="205.486328"/>
      <use xlink:href="#TimesNewRomanPSMT-35" x="238.787109"/>
      <use xlink:href="#TimesNewRomanPSMT-30" x="288.787109"/>
      <use xlink:href="#TimesNewRomanPSMT-25" x="338.787109"/>
      <use xlink:href="#TimesNewRomanPSMT-2d" x="422.087891"/>
      <use xlink:href="#TimesNewRomanPSMT-74" x="455.388672"/>
      <use xlink:href="#TimesNewRomanPSMT-69" x="483.171875"/>
      <use xlink:href="#TimesNewRomanPSMT-6c" x="510.955078"/>
      <use xlink:href="#TimesNewRomanPSMT-65" x="538.738281"/>
      <use xlink:href="#TimesNewRomanPSMT-29" x="583.123047"/>
     </g>
    </g>
    <g id="patch_13">
     <path d="M 333.503438 49.570312 
L 351.503438 49.570312 
L 351.503438 43.270313 
L 333.503438 43.270313 
z
" style="fill: #0000ff; fill-opacity: 0.3; stroke: #0000ff; stroke-opacity: 0.3; stroke-linejoin: miter"/>
    </g>
    <g id="text_27">
     <!-- 25%-/75%-tile -->
     <g transform="translate(358.703438 49.570312) scale(0.09 -0.09)">
      <defs>
       <path id="TimesNewRomanPSMT-37" d="M 644 4238 
L 2916 4238 
L 2916 4119 
L 1503 -88 
L 1153 -88 
L 2419 3728 
L 1253 3728 
Q 900 3728 750 3644 
Q 488 3500 328 3200 
L 238 3234 
L 644 4238 
z
" transform="scale(0.015625)"/>
      </defs>
      <use xlink:href="#TimesNewRomanPSMT-32"/>
      <use xlink:href="#TimesNewRomanPSMT-35" x="50"/>
      <use xlink:href="#TimesNewRomanPSMT-25" x="100"/>
      <use xlink:href="#TimesNewRomanPSMT-2d" x="183.300781"/>
      <use xlink:href="#TimesNewRomanPSMT-2f" x="216.601562"/>
      <use xlink:href="#TimesNewRomanPSMT-37" x="244.384766"/>
      <use xlink:href="#TimesNewRomanPSMT-35" x="294.384766"/>
      <use xlink:href="#TimesNewRomanPSMT-25" x="344.384766"/>
      <use xlink:href="#TimesNewRomanPSMT-2d" x="427.685547"/>
      <use xlink:href="#TimesNewRomanPSMT-74" x="460.986328"/>
      <use xlink:href="#TimesNewRomanPSMT-69" x="488.769531"/>
      <use xlink:href="#TimesNewRomanPSMT-6c" x="516.552734"/>
      <use xlink:href="#TimesNewRomanPSMT-65" x="544.335938"/>
     </g>
    </g>
    <g id="patch_14">
     <path d="M 333.503438 62.295469 
L 351.503438 62.295469 
L 351.503438 55.995469 
L 333.503438 55.995469 
z
" style="fill: #0000ff; fill-opacity: 0.1; stroke: #0000ff; stroke-opacity: 0.1; stroke-linejoin: miter"/>
    </g>
    <g id="text_28">
     <!-- 10%-/90%-tile -->
     <g transform="translate(358.703438 62.295469) scale(0.09 -0.09)">
      <defs>
       <path id="TimesNewRomanPSMT-39" d="M 338 -88 
L 338 28 
Q 744 34 1094 217 
Q 1444 400 1770 856 
Q 2097 1313 2225 1859 
Q 1734 1544 1338 1544 
Q 891 1544 572 1889 
Q 253 2234 253 2806 
Q 253 3363 572 3797 
Q 956 4325 1575 4325 
Q 2097 4325 2469 3894 
Q 2925 3359 2925 2575 
Q 2925 1869 2578 1258 
Q 2231 647 1613 244 
Q 1109 -88 516 -88 
L 338 -88 
z
M 2275 2091 
Q 2331 2497 2331 2741 
Q 2331 3044 2228 3395 
Q 2125 3747 1936 3934 
Q 1747 4122 1506 4122 
Q 1228 4122 1018 3872 
Q 809 3622 809 3128 
Q 809 2469 1088 2097 
Q 1291 1828 1588 1828 
Q 1731 1828 1928 1897 
Q 2125 1966 2275 2091 
z
" transform="scale(0.015625)"/>
      </defs>
      <use xlink:href="#TimesNewRomanPSMT-31"/>
      <use xlink:href="#TimesNewRomanPSMT-30" x="50"/>
      <use xlink:href="#TimesNewRomanPSMT-25" x="100"/>
      <use xlink:href="#TimesNewRomanPSMT-2d" x="183.300781"/>
      <use xlink:href="#TimesNewRomanPSMT-2f" x="216.601562"/>
      <use xlink:href="#TimesNewRomanPSMT-39" x="244.384766"/>
      <use xlink:href="#TimesNewRomanPSMT-30" x="294.384766"/>
      <use xlink:href="#TimesNewRomanPSMT-25" x="344.384766"/>
      <use xlink:href="#TimesNewRomanPSMT-2d" x="427.685547"/>
      <use xlink:href="#TimesNewRomanPSMT-74" x="460.986328"/>
      <use xlink:href="#TimesNewRomanPSMT-69" x="488.769531"/>
      <use xlink:href="#TimesNewRomanPSMT-6c" x="516.552734"/>
      <use xlink:href="#TimesNewRomanPSMT-65" x="544.335938"/>
     </g>
    </g>
   </g>
  </g>
 </g>
 <defs>
  <clipPath id="pf6e0d1c317">
   <rect x="48.26" y="9.72" width="162.88" height="121.798937"/>
  </clipPath>
  <clipPath id="p4df4147ce0">
   <rect x="259.4" y="9.72" width="162.88" height="121.798937"/>
  </clipPath>
 </defs>
</svg>
